<svg width="151" height="23" viewBox="0 0 151 23" fill="none" xmlns="http://www.w3.org/2000/svg">
<path d="M37.4536 12.8705C37.4536 6.42432 42.4327 1.41431 50.0483 1.41431C52.9685 1.41431 55.332 2.17074 57.3909 3.4205L55.9203 10.064C53.8299 8.32089 52.0231 7.63023 49.9433 7.63023C46.3298 7.63023 43.9138 9.57065 43.9138 12.1579C43.9138 14.5368 45.8571 16.0716 48.7773 16.0716C50.3635 16.0716 52.6114 15.6112 54.8698 14.2408L53.1996 21.2351C51.1723 22.0792 49.3025 22.3094 47.6638 22.3094C42.044 22.3094 37.4641 19.1193 37.4641 12.8814L37.4536 12.8705Z" fill="white"/>
<path d="M69.7963 19.0536H61.813L60.0378 22.0136H53.231L65.7837 1.69946H73.3468L76.2145 22.0136H70.185L69.7963 19.0536ZM69.103 13.7695L68.3782 8.22234L65.0168 13.7695H69.103Z" fill="white"/>
<path d="M86.53 7.61939L85.9733 9.91062H94.6709L93.2528 15.7977H84.5762L83.0741 22.0026H76.8135L81.698 1.69946H97.6016L96.1835 7.61939H86.5405H86.53Z" fill="white"/>
<path d="M111.026 15.9731L109.577 22.0136H94.1143L98.9883 1.69946H105.249L101.824 15.9731H111.026Z" fill="white"/>
<path d="M120.785 7.61939L120.364 9.41729H129.535L128.39 14.1423H119.219L118.747 16.0827H128.621L127.234 22.0026H111.079L115.942 1.69946H132.098L130.648 7.61939H120.774H120.785Z" fill="white"/>
<path d="M147.203 18.4397L149.062 22.0136H141.835L139.503 16.9049H136.667L135.47 22.0136H129.209L133.988 1.69946H144.251C148.232 1.69946 151.006 4.1661 151.006 7.7619C151.006 11.3577 148.926 14.4931 145.858 16.0059C146.279 16.7076 146.72 17.5188 147.192 18.4397H147.203ZM138.862 7.61939L138.033 11.1604H142.171C143.558 11.1604 144.419 10.1408 144.419 9.09937C144.419 8.34293 143.81 7.61939 142.97 7.61939H138.852H138.862Z" fill="white"/>
<path d="M3.53487 15.6987L6.98029 9.37318C7.30593 8.77022 7.91518 8.40845 8.57695 8.40845H23.0204C23.7662 8.40845 24.2284 9.25258 23.8608 9.92132L17.0855 22.1449C16.7914 22.682 16.2451 23.0109 15.6569 23.0109H0.625164C0.152469 23.0109 -0.152157 22.4737 0.0789383 22.0352L3.52436 15.7097L3.53487 15.6987Z" fill="white"/>
<path d="M18.9545 21.7064L25.7298 9.58151C26.3915 8.39752 25.5722 6.91754 24.2697 6.91754H9.52155C9.12238 6.91754 8.87028 6.4571 9.06986 6.09533L12.3682 0.263108C12.4628 0.0986654 12.6308 0 12.8199 0H25.6877C31.6542 0 35.3307 6.79695 32.253 12.1249L26.402 22.2545C26.3075 22.419 26.1394 22.5176 25.9609 22.5176H19.4061C19.007 22.5176 18.7549 22.0682 18.9545 21.7064Z" fill="url(#paint0_linear_755_293)"/>
<defs>
<linearGradient id="paint0_linear_755_293" x1="10.7295" y1="15.2931" x2="32.2521" y2="6.07882" gradientUnits="userSpaceOnUse">
<stop offset="0.29" stop-color="#7DF4F4"/>
<stop offset="0.5" stop-color="#65ECEE"/>
<stop offset="0.94" stop-color="#2AD9E1"/>
<stop offset="1" stop-color="#22D7E0"/>
</linearGradient>
</defs>
</svg>
