<svg width="26" height="26" viewBox="0 0 26 26" fill="none" xmlns="http://www.w3.org/2000/svg">
<path d="M20.8 22.75C21.3384 22.75 21.775 22.3135 21.775 21.775C21.775 21.2366 21.3384 20.8 20.8 20.8C20.2615 20.8 19.825 21.2366 19.825 21.775C19.825 22.3135 20.2615 22.75 20.8 22.75Z" stroke="white" stroke-width="1.95" stroke-linecap="round" stroke-linejoin="round"/>
<path d="M10.075 22.75C10.6135 22.75 11.05 22.3135 11.05 21.775C11.05 21.2366 10.6135 20.8 10.075 20.8C9.5365 20.8 9.09998 21.2366 9.09998 21.775C9.09998 22.3135 9.5365 22.75 10.075 22.75Z" stroke="white" stroke-width="1.95" stroke-linecap="round" stroke-linejoin="round"/>
<path d="M2.27502 2.2749H6.17502L8.78802 15.3302C8.87718 15.779 9.12138 16.1823 9.47788 16.4692C9.83438 16.7562 10.2805 16.9087 10.738 16.8999H20.215C20.6726 16.9087 21.1187 16.7562 21.4752 16.4692C21.8317 16.1823 22.0759 15.779 22.165 15.3302L23.725 7.1499H7.15002" stroke="white" stroke-width="1.95" stroke-linecap="round" stroke-linejoin="round"/>
</svg>
