<svg width="20" height="20" viewBox="0 0 20 20" fill="none" xmlns="http://www.w3.org/2000/svg">
<path d="M14.875 16.75C15.9105 16.75 16.75 15.9105 16.75 14.875C16.75 13.8395 15.9105 13 14.875 13C13.8395 13 13 13.8395 13 14.875C13 15.9105 13.8395 16.75 14.875 16.75Z" stroke="#121212" stroke-width="1.5" stroke-linecap="round" stroke-linejoin="round"/>
<path d="M5.125 16.75C6.16053 16.75 7 15.9105 7 14.875C7 13.8395 6.16053 13 5.125 13C4.08947 13 3.25 13.8395 3.25 14.875C3.25 15.9105 4.08947 16.75 5.125 16.75Z" stroke="#121212" stroke-width="1.5" stroke-linecap="round" stroke-linejoin="round"/>
<path d="M13 7H16L18.25 9.25V13H13V7Z" stroke="#121212" stroke-width="1.5" stroke-linecap="round" stroke-linejoin="round"/>
<path d="M13 3.25H1.75V13H13V3.25Z" stroke="#121212" stroke-width="1.5" stroke-linecap="round" stroke-linejoin="round"/>
</svg>
