<svg width="18" height="18" viewBox="0 0 18 18" fill="none" xmlns="http://www.w3.org/2000/svg">
<rect width="18" height="18" fill="#121212"/>
<path d="M4.87901 9.94395L5.8957 8.0774C5.99179 7.89948 6.17156 7.79272 6.36684 7.79272H10.6289C10.8489 7.79272 10.9853 8.04181 10.8768 8.23915L8.87755 11.8461C8.79076 12.0046 8.62958 12.1017 8.456 12.1017H4.02041C3.88093 12.1017 3.79104 11.9431 3.85923 11.8137L4.87591 9.94719L4.87901 9.94395Z" fill="white"/>
<path d="M9.42908 11.7167L11.4283 8.13885C11.6236 7.78948 11.3819 7.35276 10.9975 7.35276H6.6456C6.52781 7.35276 6.45342 7.2169 6.51231 7.11015L7.4856 5.38916C7.5135 5.34064 7.56309 5.31152 7.61889 5.31152H11.416C13.1765 5.31152 14.2614 7.31718 13.3532 8.88936L11.6267 11.8784C11.5988 11.927 11.5492 11.9561 11.4965 11.9561H9.56236C9.44458 11.9561 9.37019 11.8234 9.42908 11.7167Z" fill="url(#paint0_linear_1035_867)"/>
<defs>
<linearGradient id="paint0_linear_1035_867" x1="7.00206" y1="9.82425" x2="13.353" y2="7.10527" gradientUnits="userSpaceOnUse">
<stop offset="0.29" stop-color="#7DF4F4"/>
<stop offset="0.5" stop-color="#65ECEE"/>
<stop offset="0.94" stop-color="#2AD9E1"/>
<stop offset="1" stop-color="#22D7E0"/>
</linearGradient>
</defs>
</svg>
